<?xml version="1.0" encoding="utf-8"?>
<!-- Generator: Adobe Illustrator 22.1.0, SVG Export Plug-In . SVG Version: 6.00 Build 0)  -->
<svg version="1.1" id="레이어_1" xmlns="http://www.w3.org/2000/svg" xmlns:xlink="http://www.w3.org/1999/xlink" x="0px"
	 y="0px" viewBox="0 0 89 20" style="enable-background:new 0 0 89 20;" xml:space="preserve">
<g>
	<path d="M10.7,11.5v6.7H7.5v-6.7L1.2,0.9H4c0.3,0,0.5,0.1,0.7,0.2C4.9,1.3,5,1.5,5.1,1.7l3.2,5.8c0.2,0.3,0.3,0.7,0.5,1
		C8.9,8.7,9,9,9.2,9.3C9.3,9,9.4,8.7,9.5,8.4c0.1-0.3,0.3-0.6,0.5-1l3.2-5.8c0.1-0.2,0.2-0.3,0.4-0.5s0.4-0.2,0.7-0.2h2.9L10.7,11.5
		z"/>
	<path d="M29.1,0.9v2.6h-7.7v4.8h6.1v2.5h-6.1v4.9h7.7v2.6H18.1V0.9H29.1z"/>
	<path d="M40.5,4.1c-0.1,0.2-0.2,0.3-0.3,0.4c-0.1,0.1-0.3,0.1-0.4,0.1c-0.2,0-0.3-0.1-0.5-0.2c-0.2-0.1-0.4-0.3-0.7-0.4
		s-0.6-0.3-1-0.4s-0.8-0.2-1.3-0.2c-0.4,0-0.8,0.1-1.2,0.2S34.6,3.8,34.3,4c-0.2,0.2-0.4,0.4-0.5,0.7c-0.1,0.3-0.2,0.6-0.2,0.9
		c0,0.4,0.1,0.7,0.3,1c0.2,0.3,0.5,0.5,0.9,0.7c0.4,0.2,0.8,0.4,1.3,0.5c0.5,0.2,1,0.3,1.5,0.5s1,0.4,1.5,0.6
		c0.5,0.2,0.9,0.5,1.3,0.9s0.7,0.8,0.9,1.3s0.3,1.1,0.3,1.8c0,0.8-0.1,1.5-0.4,2.2s-0.7,1.3-1.2,1.8s-1.1,0.9-1.9,1.2
		c-0.7,0.3-1.6,0.4-2.6,0.4c-0.6,0-1.1-0.1-1.6-0.2c-0.5-0.1-1-0.3-1.5-0.5c-0.5-0.2-1-0.4-1.4-0.7c-0.4-0.3-0.8-0.6-1.1-0.9
		l0.9-1.5c0.1-0.1,0.2-0.2,0.3-0.3c0.1-0.1,0.3-0.1,0.4-0.1c0.2,0,0.4,0.1,0.6,0.2c0.2,0.2,0.5,0.3,0.8,0.5c0.3,0.2,0.7,0.4,1.1,0.5
		c0.4,0.2,0.9,0.2,1.5,0.2c0.9,0,1.6-0.2,2.1-0.7s0.8-1.1,0.8-1.9c0-0.5-0.1-0.8-0.3-1.1c-0.2-0.3-0.5-0.5-0.9-0.7s-0.8-0.4-1.3-0.5
		c-0.5-0.1-1-0.3-1.5-0.4c-0.5-0.2-1-0.4-1.5-0.6c-0.5-0.2-0.9-0.5-1.3-0.9c-0.4-0.4-0.7-0.8-0.9-1.3c-0.2-0.5-0.3-1.2-0.3-2
		c0-0.6,0.1-1.2,0.4-1.8c0.3-0.6,0.6-1.1,1.1-1.6s1.1-0.8,1.8-1.1s1.5-0.4,2.4-0.4c1,0,2,0.2,2.8,0.5C40,1.6,40.7,2,41.3,2.6
		L40.5,4.1z"/>
	<path d="M43,9.8h6.2v2.5H43V9.8z"/>
	<path d="M54.7,15.6h6.9v2.7H51.5V0.9h3.2V15.6z"/>
	<path d="M74.2,0.9v2.6h-7.7v4.8h6.1v2.5h-6.1v4.9h7.7v2.6H63.3V0.9H74.2z"/>
	<path d="M87.4,0.9v2.6h-7.7v4.8h6.1v2.5h-6.1v4.9h7.7v2.6H76.4V0.9H87.4z"/>
</g>
</svg>
